<svg width="398" height="320" viewBox="0 0 398 320" fill="none" xmlns="http://www.w3.org/2000/svg">
<g clip-path="url(#clip0_2471_34035)">
<mask id="mask0_2471_34035" style="mask-type:luminance" maskUnits="userSpaceOnUse" x="0" y="0" width="398" height="320">
<path d="M397.57 0.5H0.0721741V319.5H397.57V0.5Z" fill="white"/>
</mask>
<g mask="url(#mask0_2471_34035)">
<path d="M85.9761 39.5607C86.1043 29.2973 90.2661 19.4964 97.5628 12.277C104.859 5.05762 114.703 0.999576 124.968 0.980172C135.232 0.960769 145.091 4.98148 152.415 12.1733C159.738 19.365 163.938 29.15 164.105 39.4129C164.105 49.7331 168.204 59.6309 175.502 66.9284C182.799 74.2251 192.696 78.3253 203.017 78.3253H280.833C291.159 78.345 301.054 82.4616 308.347 89.7714C315.64 97.0805 319.733 106.986 319.729 117.312C319.727 127.598 323.807 137.464 331.073 144.745C338.34 152.025 348.199 156.124 358.485 156.142C363.663 156.067 368.804 157.021 373.609 158.951C378.414 160.88 382.788 163.746 386.476 167.381C390.164 171.015 393.093 175.347 395.092 180.124C397.091 184.901 398.12 190.027 398.12 195.206C398.12 200.384 397.091 205.51 395.092 210.287C393.093 215.064 390.164 219.396 386.476 223.03C382.788 226.665 378.414 229.531 373.609 231.46C368.804 233.39 363.663 234.345 358.485 234.269H280.833C270.514 234.272 260.619 238.373 253.324 245.67C246.028 252.967 241.929 262.863 241.929 273.182C241.78 283.445 237.599 293.236 230.29 300.441C222.98 307.645 213.129 311.684 202.865 311.684C192.602 311.684 182.751 307.645 175.441 300.441C168.131 293.236 163.949 283.445 163.801 273.182C163.801 262.862 159.701 252.965 152.404 245.667C145.106 238.37 135.209 234.269 124.888 234.269C114.568 234.269 104.671 230.17 97.3737 222.873C90.0762 215.575 85.9761 205.678 85.9761 195.357V39.5607Z" fill="#E3FCF7"/>
<path d="M69.9603 194.417L69.8699 194.425C57.5316 195.548 48.4401 206.46 49.5632 218.798L49.5714 218.888C50.6937 231.227 61.6063 240.318 73.9445 239.195L74.0341 239.187C86.3724 238.064 95.4647 227.152 94.3416 214.814L94.3334 214.724C93.2103 202.386 82.2985 193.293 69.9603 194.417Z" fill="white" stroke="black" stroke-width="0.822165" stroke-linecap="round" stroke-linejoin="round"/>
<path d="M70.3015 198.161L70.2275 198.167C59.9537 199.102 52.3824 208.19 53.3172 218.464L53.3246 218.537C54.2594 228.812 63.346 236.382 73.6206 235.448L73.6937 235.441C83.9683 234.506 91.5396 225.419 90.604 215.145L90.5974 215.071C89.6626 204.796 80.5761 197.226 70.3015 198.161Z" fill="#B45AF2"/>
<path d="M67.3376 221.64C67.8136 224.251 69.9899 225.918 73.3402 225.615C76.3946 225.335 78.1844 223.636 77.946 221.016C77.6837 218.069 75.163 217.608 72.7154 217.256C69.5624 216.804 66.3847 216.238 66.0402 212.477C65.8182 210.013 67.5596 208.223 70.2028 207.723C70.6501 207.623 71.108 207.58 71.566 207.591C72.6973 207.563 73.7998 207.942 74.6746 208.66C75.5486 209.377 76.1356 210.385 76.3288 211.5" stroke="#001E2B" stroke-width="0.822165" stroke-linecap="round" stroke-linejoin="round"/>
<path d="M73.3394 225.615L73.5285 228.127" stroke="#001E2B" stroke-width="0.822165" stroke-linecap="round" stroke-linejoin="round"/>
<path d="M69.6446 205.054L70.0146 207.55" stroke="#001E2B" stroke-width="0.822165" stroke-linecap="round" stroke-linejoin="round"/>
<path d="M178.523 319.09C195.588 319.09 209.422 305.256 209.422 288.191C209.422 271.127 195.588 257.293 178.523 257.293C161.459 257.293 147.625 271.127 147.625 288.191C147.625 305.256 161.459 319.09 178.523 319.09Z" fill="black" stroke="black" stroke-width="0.822165" stroke-linecap="round" stroke-linejoin="round"/>
<path d="M169.918 310.255C186.982 310.255 200.816 296.421 200.816 279.356C200.816 262.292 186.982 248.458 169.918 248.458C152.853 248.458 139.02 262.292 139.02 279.356C139.02 296.421 152.853 310.255 169.918 310.255Z" fill="white" stroke="black" stroke-width="0.822165" stroke-linecap="round" stroke-linejoin="round"/>
<path d="M189.543 267.499C189.386 267.499 189.233 267.447 189.108 267.351C188.943 267.237 173.088 255.855 152.158 266.965C151.986 267.057 151.785 267.076 151.598 267.02C151.412 266.962 151.256 266.834 151.165 266.662C151.073 266.489 151.054 266.288 151.11 266.102C151.167 265.915 151.296 265.759 151.468 265.668C173.244 254.098 189.814 266.054 189.978 266.177C190.056 266.234 190.122 266.306 190.172 266.388C190.222 266.47 190.255 266.562 190.27 266.658C190.284 266.753 190.28 266.85 190.257 266.944C190.233 267.038 190.191 267.126 190.134 267.204C190.065 267.294 189.975 267.368 189.872 267.419C189.77 267.471 189.658 267.498 189.543 267.499Z" fill="#7C25FF"/>
<path d="M151.024 273.198C150.873 273.196 150.725 273.146 150.602 273.057C150.48 272.968 150.388 272.843 150.338 272.7C150.289 272.556 150.285 272.401 150.327 272.255C150.369 272.11 150.454 271.98 150.573 271.884C173.227 254.28 189.214 271.703 189.37 271.884C189.5 272.029 189.566 272.22 189.556 272.414C189.544 272.608 189.457 272.789 189.312 272.919C189.168 273.048 188.977 273.115 188.783 273.104C188.589 273.094 188.407 273.006 188.278 272.862C187.662 272.18 173.022 256.3 151.476 273.042C151.347 273.144 151.188 273.199 151.024 273.198Z" fill="#7C25FF"/>
<path d="M150.293 278.92C150.191 278.922 150.09 278.901 149.996 278.86C149.903 278.819 149.819 278.758 149.751 278.682C149.686 278.611 149.635 278.528 149.601 278.438C149.568 278.347 149.553 278.251 149.557 278.154C149.562 278.058 149.586 277.963 149.628 277.876C149.67 277.789 149.728 277.712 149.801 277.648C157.47 270.635 165.114 267.458 172.537 268.189C182.613 269.182 188.475 277.007 188.721 277.335C188.819 277.493 188.854 277.681 188.82 277.864C188.785 278.046 188.684 278.209 188.535 278.319C188.386 278.43 188.201 278.48 188.017 278.462C187.832 278.442 187.661 278.353 187.539 278.214C187.481 278.132 181.791 270.57 172.373 269.65C165.394 268.96 158.135 272.023 150.786 278.731C150.652 278.855 150.476 278.922 150.293 278.92Z" fill="#7C25FF"/>
<path d="M151.665 289.956H151.607C151.508 289.949 151.411 289.922 151.323 289.876C151.235 289.83 151.157 289.767 151.094 289.691C151.031 289.613 150.984 289.525 150.957 289.429C150.93 289.334 150.921 289.234 150.934 289.135C151.394 283.132 153.824 278.551 158.16 275.512C161.881 273.073 166.233 271.772 170.681 271.768H171.109C173.773 271.708 176.408 272.349 178.746 273.627C181.085 274.906 183.047 276.776 184.435 279.052C186.011 281.4 187.473 286.245 187.539 286.441C187.596 286.628 187.576 286.829 187.485 287.001C187.393 287.172 187.236 287.301 187.051 287.357C186.864 287.414 186.663 287.394 186.491 287.302C186.32 287.211 186.191 287.055 186.135 286.869C186.135 286.82 184.665 282.04 183.22 279.873C181.933 277.745 180.093 276.004 177.898 274.837C175.702 273.668 173.232 273.117 170.747 273.238C166.732 273.321 153.553 274.708 152.428 289.25C152.425 289.346 152.403 289.442 152.363 289.529C152.322 289.617 152.266 289.696 152.194 289.762C152.123 289.828 152.039 289.879 151.949 289.913C151.858 289.946 151.762 289.96 151.665 289.956Z" fill="#7C25FF"/>
<path d="M156.74 298.143C156.552 298.141 156.372 298.068 156.237 297.938C156.101 297.808 156.02 297.632 156.009 297.445L155.508 287.813C155.508 287.69 155.393 277.959 167.004 275.685C172.307 274.659 175.822 276.424 177.834 278.083C179.258 279.272 180.418 280.747 181.24 282.411C182.062 284.075 182.526 285.893 182.604 287.747C182.582 290.501 183.273 293.214 184.608 295.622C184.717 295.786 184.756 295.987 184.716 296.18C184.678 296.373 184.563 296.544 184.398 296.652C184.234 296.761 184.033 296.8 183.84 296.761C183.647 296.722 183.477 296.607 183.368 296.442C181.876 293.804 181.105 290.82 181.135 287.788C181.068 286.151 180.661 284.546 179.936 283.077C179.212 281.608 178.188 280.307 176.931 279.257C174.385 277.163 171.059 276.441 167.315 277.163C156.928 279.174 156.969 287.436 156.977 287.788L157.512 297.395C157.517 297.492 157.504 297.589 157.472 297.681C157.439 297.773 157.389 297.857 157.324 297.93C157.259 298.003 157.181 298.061 157.093 298.103C157.005 298.146 156.911 298.17 156.814 298.176L156.74 298.143Z" fill="#7C25FF"/>
<path d="M162.314 301.748C162.154 301.748 161.997 301.694 161.869 301.596C161.742 301.499 161.65 301.361 161.609 301.206C160.742 297.634 160.139 294.003 159.802 290.343C159.579 288.914 159.668 287.454 160.064 286.063C160.459 284.673 161.152 283.385 162.093 282.287C162.996 281.291 164.093 280.49 165.317 279.933C166.542 279.377 167.867 279.077 169.212 279.053C170.509 279.037 171.797 279.281 173 279.769C174.202 280.256 175.295 280.979 176.216 281.893C176.894 282.63 177.41 283.501 177.728 284.451C178.046 285.401 178.16 286.406 178.063 287.403C177.71 292.239 180.79 297.141 180.822 297.182C180.931 297.347 180.971 297.547 180.931 297.741C180.892 297.935 180.777 298.104 180.613 298.212C180.449 298.322 180.247 298.361 180.054 298.322C179.861 298.282 179.691 298.168 179.582 298.004C179.443 297.782 176.208 292.65 176.602 287.329C176.686 286.534 176.598 285.73 176.347 284.971C176.094 284.212 175.683 283.515 175.14 282.928C174.363 282.151 173.44 281.537 172.423 281.12C171.407 280.703 170.319 280.492 169.22 280.497C168.084 280.526 166.965 280.783 165.931 281.254C164.897 281.726 163.968 282.401 163.201 283.24C162.403 284.187 161.818 285.295 161.485 286.487C161.152 287.68 161.079 288.93 161.272 290.154C161.608 293.735 162.195 297.288 163.029 300.787C163.055 300.88 163.062 300.977 163.052 301.073C163.04 301.168 163.01 301.26 162.962 301.345C162.915 301.429 162.852 301.502 162.775 301.562C162.7 301.621 162.613 301.665 162.52 301.69C162.455 301.722 162.386 301.742 162.314 301.748Z" fill="#7C25FF"/>
<path d="M167.184 302.117C167.022 302.117 166.864 302.063 166.736 301.963C166.608 301.864 166.518 301.724 166.478 301.567C166.478 301.501 164.836 295.261 164.088 291.065C163.611 288.397 163.907 286.336 164.975 284.939C165.455 284.352 166.055 283.874 166.734 283.537C167.414 283.2 168.158 283.012 168.916 282.985C169.548 282.892 170.193 282.941 170.804 283.128C171.415 283.316 171.976 283.637 172.447 284.07C172.952 284.611 173.34 285.25 173.589 285.948C173.838 286.645 173.94 287.387 173.892 288.125C173.843 290.558 174.23 292.98 175.034 295.277C175.654 296.97 176.132 298.712 176.462 300.483C176.471 300.666 176.412 300.845 176.296 300.986C176.18 301.129 176.016 301.222 175.835 301.25C175.655 301.278 175.47 301.236 175.317 301.136C175.165 301.036 175.054 300.882 175.009 300.705C174.693 299.028 174.24 297.38 173.654 295.778C172.782 293.298 172.367 290.68 172.431 288.051C172.486 286.986 172.123 285.94 171.42 285.137C171.101 284.856 170.723 284.649 170.315 284.532C169.905 284.414 169.476 284.388 169.056 284.455C168.5 284.468 167.953 284.596 167.451 284.834C166.949 285.072 166.502 285.413 166.14 285.835C165.32 286.894 165.131 288.569 165.533 290.811C166.28 294.958 167.882 301.14 167.898 301.206C167.924 301.299 167.93 301.397 167.918 301.493C167.906 301.588 167.874 301.681 167.825 301.764C167.776 301.848 167.711 301.92 167.633 301.979C167.555 302.036 167.467 302.078 167.373 302.101C167.31 302.115 167.247 302.119 167.184 302.117Z" fill="#7C25FF"/>
<path d="M171.166 300.064C171.022 300.065 170.88 300.024 170.759 299.945C170.638 299.866 170.542 299.753 170.485 299.621C170.353 299.301 167.2 291.738 168.285 287.083C168.306 286.989 168.346 286.9 168.401 286.821C168.457 286.743 168.528 286.677 168.609 286.626C168.692 286.575 168.782 286.54 168.877 286.524C168.972 286.508 169.069 286.511 169.163 286.533C169.256 286.554 169.345 286.594 169.424 286.649C169.502 286.705 169.569 286.776 169.62 286.857C169.671 286.94 169.705 287.03 169.722 287.125C169.737 287.22 169.735 287.317 169.713 287.411C168.744 291.607 171.807 298.972 171.84 299.046C171.878 299.135 171.897 299.23 171.898 299.327C171.898 299.423 171.88 299.52 171.843 299.608C171.806 299.698 171.753 299.779 171.684 299.848C171.616 299.916 171.535 299.97 171.446 300.006C171.358 300.045 171.263 300.065 171.166 300.064Z" fill="#7C25FF"/>
<path d="M157.331 260.955C157.189 260.957 157.049 260.916 156.929 260.839C156.81 260.761 156.715 260.65 156.658 260.52C156.58 260.342 156.576 260.14 156.647 259.958C156.718 259.777 156.857 259.631 157.035 259.552C170.419 253.722 182.736 258.172 185.068 259.124C185.249 259.197 185.397 259.335 185.479 259.512C185.562 259.689 185.573 259.891 185.511 260.077C185.484 260.166 185.437 260.249 185.377 260.321C185.317 260.391 185.243 260.45 185.16 260.492C185.076 260.534 184.984 260.559 184.892 260.566C184.798 260.572 184.705 260.559 184.616 260.529L184.509 260.487C182.276 259.568 170.46 255.306 157.626 260.898C157.532 260.937 157.432 260.956 157.331 260.955Z" fill="#7C25FF"/>
<path d="M244.696 130.916C242.819 127.03 239.964 123.697 236.413 121.245C232.861 118.792 228.733 117.304 224.434 116.926C220.134 116.548 215.81 117.292 211.884 119.087C207.959 120.881 204.567 123.664 202.039 127.164" stroke="black" stroke-width="0.822165" stroke-miterlimit="10" stroke-dasharray="1.64 1.64"/>
<path d="M253.828 121.851C250.916 116.779 246.821 112.487 241.891 109.341C236.963 106.195 231.345 104.288 225.519 103.784C219.693 103.28 213.831 104.193 208.434 106.446C203.038 108.698 198.267 112.222 194.527 116.719" stroke="black" stroke-width="0.822165" stroke-miterlimit="10" stroke-dasharray="1.64 1.64"/>
<path d="M187.169 105.929C192.142 100.706 198.223 96.662 204.964 94.0961C211.704 91.5301 218.934 90.5065 226.122 91.1009C233.404 91.757 240.453 93.9999 246.775 97.6708C253.098 101.342 258.539 106.353 262.719 112.351" stroke="black" stroke-width="0.822165" stroke-miterlimit="10" stroke-dasharray="1.64 1.64"/>
<path d="M234.909 135.111C233.785 132.966 232.133 131.14 230.11 129.808C228.086 128.476 225.758 127.68 223.343 127.496C220.927 127.311 218.504 127.743 216.302 128.752C214.099 129.762 212.189 131.314 210.752 133.264" stroke="black" stroke-width="0.822165" stroke-miterlimit="10" stroke-dasharray="1.64 1.64"/>
<path d="M166.599 167.198L163.379 221.411C162.954 228.559 168.404 234.697 175.552 235.122L286.567 241.717C293.715 242.142 299.853 236.692 300.278 229.544L303.499 175.332C303.924 168.184 298.474 162.045 291.326 161.62L180.31 155.024C173.163 154.6 167.024 160.05 166.599 167.198Z" fill="black" stroke="black" stroke-width="0.822165" stroke-linecap="round" stroke-linejoin="round"/>
<path d="M158.108 156.83L154.887 211.042C154.462 218.19 159.913 224.329 167.06 224.753L278.076 231.349C285.224 231.773 291.362 226.323 291.787 219.175L295.007 164.963C295.432 157.815 289.982 151.676 282.834 151.251L171.819 144.656C164.671 144.231 158.532 149.682 158.108 156.83Z" fill="#00ED64" stroke="black" stroke-width="0.822165" stroke-linecap="round" stroke-linejoin="round"/>
<path d="M156.463 187.51L155.247 207.977L291.966 216.1L293.182 195.633L156.463 187.51Z" fill="#B1FF05"/>
<path d="M341.464 273.953L309.991 255.437L291.582 283.839L260.84 303.628L228.119 276.539" stroke="black" stroke-width="0.822165" stroke-linecap="round" stroke-linejoin="round"/>
<path d="M341.784 278.477C344.152 278.477 346.07 276.558 346.07 274.191C346.07 271.824 344.152 269.905 341.784 269.905C339.417 269.905 337.498 271.824 337.498 274.191C337.498 276.558 339.417 278.477 341.784 278.477Z" fill="#B45AF2" stroke="black" stroke-width="0.822165" stroke-linecap="round" stroke-linejoin="round"/>
<path d="M309.974 259.526C312.341 259.526 314.26 257.607 314.26 255.24C314.26 252.873 312.341 250.954 309.974 250.954C307.607 250.954 305.688 252.873 305.688 255.24C305.688 257.607 307.607 259.526 309.974 259.526Z" fill="#B45AF2" stroke="black" stroke-width="0.822165" stroke-linecap="round" stroke-linejoin="round"/>
<path d="M291.385 288.151C293.752 288.151 295.671 286.232 295.671 283.865C295.671 281.497 293.752 279.578 291.385 279.578C289.017 279.578 287.098 281.497 287.098 283.865C287.098 286.232 289.017 288.151 291.385 288.151Z" fill="#B45AF2" stroke="black" stroke-width="0.822165" stroke-linecap="round" stroke-linejoin="round"/>
<path d="M260.839 307.905C263.207 307.905 265.126 305.986 265.126 303.619C265.126 301.252 263.207 299.333 260.839 299.333C258.472 299.333 256.553 301.252 256.553 303.619C256.553 305.986 258.472 307.905 260.839 307.905Z" fill="#B45AF2" stroke="black" stroke-width="0.822165" stroke-linecap="round" stroke-linejoin="round"/>
<path d="M228.11 280.711C230.477 280.711 232.396 278.792 232.396 276.425C232.396 274.058 230.477 272.139 228.11 272.139C225.742 272.139 223.824 274.058 223.824 276.425C223.824 278.792 225.742 280.711 228.11 280.711Z" fill="#B45AF2" stroke="black" stroke-width="0.822165" stroke-linecap="round" stroke-linejoin="round"/>
<path d="M308.948 96.6843L302.199 90.1324L305.113 79.9178L311.953 86.1745L308.948 96.6843Z" fill="white" stroke="black" stroke-width="0.822165" stroke-linecap="round" stroke-linejoin="round"/>
<path d="M308.973 96.6933L318.16 94.6897L321.084 84.4751L311.969 86.1827L308.973 96.6933Z" fill="white" stroke="black" stroke-width="0.822165" stroke-linecap="round" stroke-linejoin="round"/>
<path d="M314.194 78.3245L305.113 79.9178L311.969 86.1827L321.083 84.4751L314.194 78.3245Z" fill="black" stroke="black" stroke-width="0.822165" stroke-linecap="round" stroke-linejoin="round"/>
<path d="M33.9429 206.902H43.5006" stroke="black" stroke-width="0.822165" stroke-linecap="round" stroke-linejoin="round"/>
<path d="M0.482422 206.902H29.1061" stroke="black" stroke-width="0.822165" stroke-linecap="round" stroke-linejoin="round"/>
<path d="M7.88849 214.768L0.482422 206.902L7.68377 199.135" stroke="black" stroke-width="0.822165" stroke-linecap="round" stroke-linejoin="round"/>
<path d="M124.207 235.952L131.614 228.078L124.412 220.31" stroke="black" stroke-width="0.822165" stroke-linecap="round" stroke-linejoin="round"/>
<path d="M131.614 228.078H100.501" stroke="black" stroke-width="0.822165" stroke-linecap="round" stroke-linejoin="round"/>
<path d="M309.81 146.657V158.202" stroke="black" stroke-width="0.822165" stroke-linecap="round" stroke-linejoin="round"/>
<path d="M309.81 108.591V137.921" stroke="black" stroke-width="0.822165" stroke-linecap="round" stroke-linejoin="round"/>
<path d="M158.103 156.83L156.633 181.594L178.556 180.191L176.298 144.883L171.815 144.62C170.112 144.519 168.406 144.755 166.796 145.314C165.184 145.874 163.699 146.745 162.425 147.88C161.152 149.013 160.114 150.388 159.372 151.924C158.63 153.46 158.199 155.127 158.103 156.83Z" fill="black" stroke="black" stroke-width="0.822165" stroke-linecap="round" stroke-linejoin="round"/>
<path d="M150.253 171.545L45.3323 180.864L32.925 41.1611L113.27 34.0256L139.981 55.8259L150.253 171.545Z" fill="white" stroke="black" stroke-width="0.822165" stroke-linecap="round" stroke-linejoin="round"/>
<path d="M128.05 46.7781L127.885 46.6796C126.202 45.7107 124.503 44.7582 122.753 43.9125L43.0155 51.0154L53.6905 171.373L140.612 163.638L130.48 49.8081C129.599 48.8571 128.787 47.8446 128.05 46.7781Z" fill="#F9EBFF" stroke="black" stroke-width="0.822165" stroke-linecap="round" stroke-linejoin="round"/>
<path d="M124.371 74.7777L55.9975 80.8453" stroke="black" stroke-width="0.822165" stroke-linecap="round" stroke-linejoin="round"/>
<path d="M120.11 92.3497L57.5168 97.9002" stroke="black" stroke-width="0.822165" stroke-linecap="round" stroke-linejoin="round"/>
<path d="M127.402 108.894L59.028 114.962" stroke="black" stroke-width="0.822165" stroke-linecap="round" stroke-linejoin="round"/>
<path d="M123.279 126.45L60.5383 132.018" stroke="black" stroke-width="0.822165" stroke-linecap="round" stroke-linejoin="round"/>
<path d="M116.554 144.234L62.0576 149.079" stroke="black" stroke-width="0.822165" stroke-linecap="round" stroke-linejoin="round"/>
<path d="M139.98 55.826L116.185 39.9784L118.262 63.3882L139.98 55.826Z" fill="black" stroke="black" stroke-width="0.822165" stroke-linecap="round" stroke-linejoin="round"/>
<path d="M113.27 34.0256L115.331 58.1173L139.981 55.8259L113.27 34.0256Z" fill="white" stroke="black" stroke-width="0.822165" stroke-linecap="round" stroke-linejoin="round"/>
<path d="M158.108 156.83L154.887 211.042C154.462 218.19 159.913 224.329 167.06 224.753L278.076 231.349C285.224 231.773 291.362 226.323 291.787 219.175L295.007 164.963C295.432 157.815 289.982 151.676 282.834 151.251L171.819 144.656C164.671 144.231 158.532 149.682 158.108 156.83Z" stroke="black" stroke-width="0.822165" stroke-linecap="round" stroke-linejoin="round"/>
</g>
</g>
<defs>
<clipPath id="clip0_2471_34035">
<rect width="397.928" height="319" fill="white" transform="translate(0.0721741 0.5)"/>
</clipPath>
</defs>
</svg>
